<svg width="16" height="16" viewBox="0 0 16 16" fill="none" xmlns="http://www.w3.org/2000/svg">
<g id="Property 1=icon-edit" clip-path="url(#clip0_1100_8461)">
<g id="Shape">
<path fill-rule="evenodd" clip-rule="evenodd" d="M13.3332 0.585938C12.7813 0.585938 12.252 0.805172 11.8618 1.19541L5.52843 7.52875C5.44299 7.61419 5.38238 7.72124 5.35308 7.83846L4.68641 10.5051C4.62961 10.7323 4.69618 10.9726 4.86177 11.1382C5.02735 11.3038 5.26768 11.3704 5.49486 11.3136L8.16153 10.6469C8.27875 10.6176 8.3858 10.557 8.47124 10.4716L14.8046 4.13822C15.1948 3.74798 15.4141 3.2187 15.4141 2.66682C15.4141 2.11493 15.1948 1.58565 14.8046 1.19541C14.4143 0.805172 13.8851 0.585938 13.3332 0.585938ZM12.8046 2.13822C12.9448 1.99803 13.1349 1.91927 13.3332 1.91927C13.5314 1.91927 13.7216 1.99803 13.8618 2.13822C14.002 2.27841 14.0807 2.46856 14.0807 2.66682C14.0807 2.86508 14.002 3.05522 13.8618 3.19541L7.659 9.39818L6.24942 9.75057L6.60181 8.34098L12.8046 2.13822Z" fill="#322826"/>
<path d="M2.6665 2.00016C2.13607 2.00016 1.62736 2.21088 1.25229 2.58595C0.877217 2.96102 0.666504 3.46973 0.666504 4.00016V13.3335C0.666504 13.8639 0.877218 14.3726 1.25229 14.7477C1.62736 15.1228 2.13607 15.3335 2.6665 15.3335H11.9998C12.5303 15.3335 13.039 15.1228 13.4141 14.7477C13.7891 14.3726 13.9998 13.8639 13.9998 13.3335V8.66683C13.9998 8.29864 13.7014 8.00016 13.3332 8.00016C12.965 8.00016 12.6665 8.29864 12.6665 8.66683V13.3335C12.6665 13.5103 12.5963 13.6799 12.4712 13.8049C12.3462 13.9299 12.1766 14.0002 11.9998 14.0002H2.6665C2.48969 14.0002 2.32012 13.9299 2.1951 13.8049C2.07008 13.6799 1.99984 13.5103 1.99984 13.3335V4.00016C1.99984 3.82335 2.07008 3.65378 2.1951 3.52876C2.32012 3.40373 2.48969 3.3335 2.6665 3.3335H7.33317C7.70136 3.3335 7.99984 3.03502 7.99984 2.66683C7.99984 2.29864 7.70136 2.00016 7.33317 2.00016H2.6665Z" fill="#322826"/>
</g>
</g>
<defs>
<clipPath id="clip0_1100_8461">
<rect width="16" height="16" fill="white"/>
</clipPath>
</defs>
</svg>
