<svg width="16" height="16" viewBox="0 0 16 16" fill="none" xmlns="http://www.w3.org/2000/svg">
<g id="Property 1=icon-eye">
<g id="Shape">
<path fill-rule="evenodd" clip-rule="evenodd" d="M7.99988 5.33333C6.52712 5.33333 5.33322 6.52724 5.33322 8C5.33322 9.47276 6.52712 10.6667 7.99988 10.6667C9.47264 10.6667 10.6665 9.47276 10.6665 8C10.6665 6.52724 9.47264 5.33333 7.99988 5.33333ZM6.66655 8C6.66655 7.26362 7.2635 6.66667 7.99988 6.66667C8.73626 6.66667 9.33322 7.26362 9.33322 8C9.33322 8.73638 8.73626 9.33333 7.99988 9.33333C7.2635 9.33333 6.66655 8.73638 6.66655 8Z" fill="#322826"/>
<path fill-rule="evenodd" clip-rule="evenodd" d="M15.9293 7.70139C15.9293 7.70139 15.9295 7.70186 15.3332 8C15.9295 8.29814 15.9293 8.29861 15.9293 8.29861L15.9282 8.30075L15.9259 8.30531L15.9183 8.32012C15.912 8.33248 15.903 8.34979 15.8914 8.37171C15.8682 8.41553 15.8345 8.47785 15.7906 8.55601C15.7027 8.71224 15.5733 8.93232 15.4037 9.19502C15.0652 9.71913 14.562 10.4196 13.9029 11.1226C12.5969 12.5157 10.5996 14 7.99988 14C5.40021 14 3.40287 12.5157 2.09686 11.1226C1.43777 10.4196 0.934593 9.71913 0.596107 9.19502C0.426449 8.93232 0.297077 8.71224 0.209197 8.55601C0.165232 8.47785 0.131576 8.41553 0.108385 8.37171C0.0967872 8.34979 0.0877995 8.33248 0.0814414 8.32012L0.0738761 8.30531L0.0715754 8.30075L0.0707961 8.2992C0.0707961 8.2992 0.0702646 8.29814 0.666549 8C0.0702646 7.70186 0.0704994 7.70139 0.0704994 7.70139L0.0715754 7.69925L0.0738761 7.69469L0.0814414 7.67988C0.0877995 7.66752 0.0967872 7.65021 0.108385 7.62829C0.131576 7.58447 0.165232 7.52215 0.209197 7.44399C0.297077 7.28776 0.426449 7.06768 0.596107 6.80498C0.934593 6.28087 1.43777 5.5804 2.09686 4.87737C3.40287 3.48429 5.40021 2 7.99988 2C10.5996 2 12.5969 3.48429 13.9029 4.87737C14.562 5.5804 15.0652 6.28087 15.4037 6.80498C15.5733 7.06768 15.7027 7.28776 15.7906 7.44399C15.8345 7.52215 15.8682 7.58447 15.8914 7.62829C15.903 7.65021 15.912 7.66752 15.9183 7.67988L15.9259 7.69469L15.9282 7.69925L15.9293 7.70139ZM1.71616 8.47165C1.5965 8.28637 1.4999 8.12591 1.42704 8C1.4999 7.87409 1.5965 7.71363 1.71616 7.52835C2.02351 7.05246 2.47866 6.4196 3.06957 5.78929C4.26356 4.51571 5.93289 3.33333 7.99988 3.33333C10.0669 3.33333 11.7362 4.51571 12.9302 5.78929C13.5211 6.4196 13.9763 7.05246 14.2836 7.52835C14.4033 7.71363 14.4999 7.87409 14.5727 8C14.4999 8.12591 14.4033 8.28637 14.2836 8.47165C13.9763 8.94754 13.5211 9.5804 12.9302 10.2107C11.7362 11.4843 10.0669 12.6667 7.99988 12.6667C5.93289 12.6667 4.26356 11.4843 3.06957 10.2107C2.47866 9.5804 2.02351 8.94754 1.71616 8.47165Z" fill="#322826"/>
<path d="M15.3332 8L15.9293 7.70139C16.0231 7.88907 16.0231 8.11093 15.9293 8.29861L15.3332 8Z" fill="#322826"/>
<path d="M0.0704994 7.70139L0.666549 8L0.0702646 8.29814C-0.0235779 8.11046 -0.0233431 7.88907 0.0704994 7.70139Z" fill="#322826"/>
</g>
</g>
</svg>
