<svg width="16" height="16" viewBox="0 0 16 16" fill="none" xmlns="http://www.w3.org/2000/svg">
<g id="Property 1=icon-square">
<path id="Shape" fill-rule="evenodd" clip-rule="evenodd" d="M3.3335 2.66732C2.96531 2.66732 2.66683 2.96579 2.66683 3.33398V12.6673C2.66683 13.0355 2.96531 13.334 3.3335 13.334H12.6668C13.035 13.334 13.3335 13.0355 13.3335 12.6673V3.33398C13.3335 2.96579 13.035 2.66732 12.6668 2.66732H3.3335ZM1.3335 3.33398C1.3335 2.22941 2.22893 1.33398 3.3335 1.33398H12.6668C13.7714 1.33398 14.6668 2.22941 14.6668 3.33398V12.6673C14.6668 13.7719 13.7714 14.6673 12.6668 14.6673H3.3335C2.22893 14.6673 1.3335 13.7719 1.3335 12.6673V3.33398Z" fill="#322826"/>
</g>
</svg>
