<svg width="16" height="16" viewBox="0 0 16 16" fill="none" xmlns="http://www.w3.org/2000/svg">
<g id="Property 1=icon-grid">
<g id="Shape">
<path fill-rule="evenodd" clip-rule="evenodd" d="M2.00016 1.33398C1.63197 1.33398 1.3335 1.63246 1.3335 2.00065V6.66732C1.3335 7.03551 1.63197 7.33398 2.00016 7.33398H6.66683C7.03502 7.33398 7.3335 7.03551 7.3335 6.66732V2.00065C7.3335 1.63246 7.03502 1.33398 6.66683 1.33398H2.00016ZM2.66683 6.00065V2.66732H6.00016V6.00065H2.66683Z" fill="#322826"/>
<path fill-rule="evenodd" clip-rule="evenodd" d="M9.3335 1.33398C8.96531 1.33398 8.66683 1.63246 8.66683 2.00065V6.66732C8.66683 7.03551 8.96531 7.33398 9.3335 7.33398H14.0002C14.3684 7.33398 14.6668 7.03551 14.6668 6.66732V2.00065C14.6668 1.63246 14.3684 1.33398 14.0002 1.33398H9.3335ZM10.0002 6.00065V2.66732H13.3335V6.00065H10.0002Z" fill="#322826"/>
<path fill-rule="evenodd" clip-rule="evenodd" d="M8.66683 9.33398C8.66683 8.96579 8.96531 8.66732 9.3335 8.66732H14.0002C14.3684 8.66732 14.6668 8.96579 14.6668 9.33398V14.0007C14.6668 14.3688 14.3684 14.6673 14.0002 14.6673H9.3335C8.96531 14.6673 8.66683 14.3688 8.66683 14.0007V9.33398ZM10.0002 10.0007V13.334H13.3335V10.0007H10.0002Z" fill="#322826"/>
<path fill-rule="evenodd" clip-rule="evenodd" d="M2.00016 8.66732C1.63197 8.66732 1.3335 8.96579 1.3335 9.33398V14.0007C1.3335 14.3688 1.63197 14.6673 2.00016 14.6673H6.66683C7.03502 14.6673 7.3335 14.3688 7.3335 14.0007V9.33398C7.3335 8.96579 7.03502 8.66732 6.66683 8.66732H2.00016ZM2.66683 13.334V10.0007H6.00016V13.334H2.66683Z" fill="#322826"/>
</g>
</g>
</svg>
