<svg width="16" height="16" viewBox="0 0 16 16" fill="none" xmlns="http://www.w3.org/2000/svg">
<g id="Property 1=icon-external-link">
<g id="Shape">
<path d="M9.3335 2.00065C9.3335 1.63246 9.63197 1.33398 10.0002 1.33398H14.0002C14.3684 1.33398 14.6668 1.63246 14.6668 2.00065V6.00065C14.6668 6.36884 14.3684 6.66732 14.0002 6.66732C13.632 6.66732 13.3335 6.36884 13.3335 6.00065V3.61013L7.13823 9.80539C6.87788 10.0657 6.45577 10.0657 6.19543 9.80539C5.93508 9.54504 5.93508 9.12293 6.19543 8.86258L12.3907 2.66732H10.0002C9.63197 2.66732 9.3335 2.36884 9.3335 2.00065Z" fill="#322826"/>
<path d="M3.3335 4.66732C3.15668 4.66732 2.98712 4.73756 2.86209 4.86258C2.73707 4.9876 2.66683 5.15717 2.66683 5.33398V12.6673C2.66683 12.8441 2.73707 13.0137 2.86209 13.1387C2.98712 13.2637 3.15669 13.334 3.3335 13.334H10.6668C10.8436 13.334 11.0132 13.2637 11.1382 13.1387C11.2633 13.0137 11.3335 12.8441 11.3335 12.6673V8.66732C11.3335 8.29913 11.632 8.00065 12.0002 8.00065C12.3684 8.00065 12.6668 8.29913 12.6668 8.66732V12.6673C12.6668 13.1978 12.4561 13.7065 12.081 14.0815C11.706 14.4566 11.1973 14.6673 10.6668 14.6673H3.3335C2.80306 14.6673 2.29436 14.4566 1.91928 14.0815C1.54421 13.7065 1.3335 13.1978 1.3335 12.6673V5.33398C1.3335 4.80355 1.54421 4.29484 1.91928 3.91977C2.29436 3.5447 2.80306 3.33398 3.3335 3.33398H7.3335C7.70169 3.33398 8.00016 3.63246 8.00016 4.00065C8.00016 4.36884 7.70169 4.66732 7.3335 4.66732H3.3335Z" fill="#322826"/>
</g>
</g>
</svg>
