<svg width="16" height="16" viewBox="0 0 16 16" fill="none" xmlns="http://www.w3.org/2000/svg">
<g id="icon-mail">
<path id="Shape" fill-rule="evenodd" clip-rule="evenodd" d="M0.666594 3.98844C0.666486 3.99502 0.666475 4.00159 0.666561 4.00817V12C0.666561 13.1015 1.56504 14 2.66656 14H13.3332C14.4348 14 15.3332 13.1015 15.3332 12V4.00824C15.3333 4.00161 15.3333 3.99498 15.3332 3.98834C15.3269 2.89214 14.4309 2 13.3332 2H2.66656C1.56889 2 0.672855 2.8922 0.666594 3.98844ZM2.07095 3.70263C2.1812 3.48462 2.40792 3.33333 2.66656 3.33333H13.3332C13.5919 3.33333 13.8186 3.48462 13.9288 3.70263L7.99989 7.8529L2.07095 3.70263ZM13.9999 5.28044V12C13.9999 12.3651 13.6984 12.6667 13.3332 12.6667H2.66656C2.30142 12.6667 1.99989 12.3651 1.99989 12V5.28044L7.61759 9.21282C7.84713 9.3735 8.15266 9.3735 8.3822 9.21282L13.9999 5.28044Z" fill="#322826"/>
</g>
</svg>
