<svg width="16" height="16" viewBox="0 0 16 16" fill="none" xmlns="http://www.w3.org/2000/svg">
<g id="Property 1=icon-x">
<path id="Shape" d="M12.4716 4.47206C12.7319 4.21171 12.7319 3.7896 12.4716 3.52925C12.2112 3.2689 11.7891 3.2689 11.5288 3.52925L8.00016 7.05784L4.47157 3.52925C4.21122 3.2689 3.78911 3.2689 3.52876 3.52925C3.26841 3.7896 3.26841 4.21171 3.52876 4.47206L7.05735 8.00065L3.52876 11.5292C3.26841 11.7896 3.26841 12.2117 3.52876 12.4721C3.78911 12.7324 4.21122 12.7324 4.47157 12.4721L8.00016 8.94346L11.5288 12.4721C11.7891 12.7324 12.2112 12.7324 12.4716 12.4721C12.7319 12.2117 12.7319 11.7896 12.4716 11.5292L8.94297 8.00065L12.4716 4.47206Z" fill="#322826"/>
</g>
</svg>
