<svg width="16" height="16" viewBox="0 0 16 16" fill="none" xmlns="http://www.w3.org/2000/svg">
<g id="Property 1=icon-liked">
<path id="Shape" d="M13.8325 9.40452C13.8245 9.41346 13.8162 9.42223 13.8076 9.43083L8.47233 14.7661C8.34727 14.8912 8.17764 14.9614 8.00077 14.9614H7.99971C7.82285 14.9614 7.65322 14.8912 7.52815 14.7661L2.19289 9.43083C2.18429 9.42223 2.17597 9.41346 2.16794 9.40452L1.67377 8.91034C-0.0598744 7.1767 -0.0598767 4.36591 1.67377 2.63226C3.40741 0.898621 6.2182 0.898621 7.95184 2.63226L8.00024 2.68066L8.04864 2.63226C9.78229 0.89862 12.5931 0.898621 14.3267 2.63226C16.0604 4.36591 16.0604 7.1767 14.3267 8.91034L13.8325 9.40452Z" fill="#85645D"/>
</g>
</svg>
