<svg width="16" height="16" viewBox="0 0 16 16" fill="none" xmlns="http://www.w3.org/2000/svg">
<g id="Property 1=icon-list">
<g id="Shape">
<path d="M2.00016 3.33398C1.63197 3.33398 1.3335 3.63246 1.3335 4.00065C1.3335 4.36884 1.63197 4.66732 2.00016 4.66732H2.00683C2.37502 4.66732 2.6735 4.36884 2.6735 4.00065C2.6735 3.63246 2.37502 3.33398 2.00683 3.33398H2.00016Z" fill="#322826"/>
<path d="M5.3335 3.33398C4.96531 3.33398 4.66683 3.63246 4.66683 4.00065C4.66683 4.36884 4.96531 4.66732 5.3335 4.66732H14.0002C14.3684 4.66732 14.6668 4.36884 14.6668 4.00065C14.6668 3.63246 14.3684 3.33398 14.0002 3.33398H5.3335Z" fill="#322826"/>
<path d="M5.3335 7.33398C4.96531 7.33398 4.66683 7.63246 4.66683 8.00065C4.66683 8.36884 4.96531 8.66732 5.3335 8.66732H14.0002C14.3684 8.66732 14.6668 8.36884 14.6668 8.00065C14.6668 7.63246 14.3684 7.33398 14.0002 7.33398H5.3335Z" fill="#322826"/>
<path d="M4.66683 12.0007C4.66683 11.6325 4.96531 11.334 5.3335 11.334H14.0002C14.3684 11.334 14.6668 11.6325 14.6668 12.0007C14.6668 12.3688 14.3684 12.6673 14.0002 12.6673H5.3335C4.96531 12.6673 4.66683 12.3688 4.66683 12.0007Z" fill="#322826"/>
<path d="M1.3335 8.00065C1.3335 7.63246 1.63197 7.33398 2.00016 7.33398H2.00683C2.37502 7.33398 2.6735 7.63246 2.6735 8.00065C2.6735 8.36884 2.37502 8.66732 2.00683 8.66732H2.00016C1.63197 8.66732 1.3335 8.36884 1.3335 8.00065Z" fill="#322826"/>
<path d="M2.00016 11.334C1.63197 11.334 1.3335 11.6325 1.3335 12.0007C1.3335 12.3688 1.63197 12.6673 2.00016 12.6673H2.00683C2.37502 12.6673 2.6735 12.3688 2.6735 12.0007C2.6735 11.6325 2.37502 11.334 2.00683 11.334H2.00016Z" fill="#322826"/>
</g>
</g>
</svg>
