<svg width="16" height="16" viewBox="0 0 16 16" fill="none" xmlns="http://www.w3.org/2000/svg">
<g id="Property 1=icon-star">
<path id="Shape" fill-rule="evenodd" clip-rule="evenodd" d="M8.59766 1.0376C8.48535 0.810064 8.2536 0.666016 7.99986 0.666016C7.74611 0.666016 7.51437 0.810064 7.40205 1.0376L5.49701 4.89699L1.23677 5.51969C0.985731 5.55639 0.777278 5.73239 0.699026 5.97373C0.620774 6.21507 0.686289 6.4799 0.868035 6.65692L3.95018 9.65893L3.22278 13.9C3.17989 14.1501 3.28272 14.4029 3.48803 14.5521C3.69335 14.7012 3.96555 14.7209 4.19016 14.6027L7.99986 12.5992L11.8096 14.6027C12.0342 14.7209 12.3064 14.7012 12.5117 14.5521C12.717 14.4029 12.8198 14.1501 12.7769 13.9L12.0495 9.65893L15.1317 6.65692C15.3134 6.4799 15.3789 6.21507 15.3007 5.97373C15.2224 5.73239 15.014 5.55639 14.7629 5.51969L10.5027 4.89699L8.59766 1.0376ZM6.53766 5.8011L7.99986 2.83885L9.46205 5.8011C9.55908 5.99766 9.74654 6.13397 9.96344 6.16567L13.2342 6.64375L10.868 8.94844C10.7108 9.1016 10.639 9.32236 10.6761 9.53871L11.2344 12.7938L8.31016 11.256C8.1159 11.1538 7.88381 11.1538 7.68956 11.256L4.76531 12.7938L5.3236 9.53871C5.3607 9.32236 5.28893 9.1016 5.13168 8.94844L2.76546 6.64375L6.03628 6.16567C6.25318 6.13397 6.44063 5.99766 6.53766 5.8011Z" fill="#322826"/>
</g>
</svg>
