<svg width="14" height="16" viewBox="0 0 14 16" fill="none" xmlns="http://www.w3.org/2000/svg">
<g id="Shape">
<path d="M5.66683 6.66602C6.03502 6.66602 6.3335 6.96449 6.3335 7.33268V11.3327C6.3335 11.7009 6.03502 11.9993 5.66683 11.9993C5.29864 11.9993 5.00016 11.7009 5.00016 11.3327V7.33268C5.00016 6.96449 5.29864 6.66602 5.66683 6.66602Z" fill="#322826"/>
<path d="M9.00016 11.3327V7.33268C9.00016 6.96449 8.70169 6.66602 8.3335 6.66602C7.96531 6.66602 7.66683 6.96449 7.66683 7.33268V11.3327C7.66683 11.7009 7.96531 11.9993 8.3335 11.9993C8.70169 11.9993 9.00016 11.7009 9.00016 11.3327Z" fill="#322826"/>
<path fill-rule="evenodd" clip-rule="evenodd" d="M3.66683 3.33268V2.66602C3.66683 2.13558 3.87754 1.62687 4.25262 1.2518C4.62769 0.876729 5.1364 0.666016 5.66683 0.666016H8.3335C8.86393 0.666016 9.37264 0.876729 9.74771 1.2518C10.1228 1.62687 10.3335 2.13558 10.3335 2.66602V3.33268H13.0002C13.3684 3.33268 13.6668 3.63116 13.6668 3.99935C13.6668 4.36754 13.3684 4.66602 13.0002 4.66602H12.3335V13.3327C12.3335 13.8631 12.1228 14.3718 11.7477 14.7469C11.3726 15.122 10.8639 15.3327 10.3335 15.3327H3.66683C3.1364 15.3327 2.62769 15.122 2.25262 14.7469C1.87754 14.3718 1.66683 13.8631 1.66683 13.3327V4.66602H1.00016C0.631973 4.66602 0.333496 4.36754 0.333496 3.99935C0.333496 3.63116 0.631973 3.33268 1.00016 3.33268H3.66683ZM5.19543 2.19461C5.32045 2.06959 5.49002 1.99935 5.66683 1.99935H8.3335C8.51031 1.99935 8.67988 2.06959 8.8049 2.19461C8.92992 2.31964 9.00016 2.4892 9.00016 2.66602V3.33268H5.00016V2.66602C5.00016 2.4892 5.0704 2.31964 5.19543 2.19461ZM3.00016 4.66602V13.3327C3.00016 13.5095 3.0704 13.6791 3.19543 13.8041C3.32045 13.9291 3.49002 13.9993 3.66683 13.9993H10.3335C10.5103 13.9993 10.6799 13.9291 10.8049 13.8041C10.9299 13.6791 11.0002 13.5095 11.0002 13.3327V4.66602H3.00016Z" fill="#322826"/>
</g>
</svg>
