<svg width="16" height="16" viewBox="0 0 16 16" fill="none" xmlns="http://www.w3.org/2000/svg">
<g id="Property 1=icon-code">
<g id="Shape">
<path d="M11.5284 5.80409C11.7888 6.06444 12.2109 6.06444 12.4712 5.80409C12.7316 5.54374 12.7316 5.12163 12.4712 4.86128L8.47124 0.861278C8.21089 0.600928 7.78878 0.600928 7.52843 0.861278L3.52843 4.86128C3.26808 5.12163 3.26808 5.54374 3.52843 5.80409C3.78878 6.06444 4.21089 6.06444 4.47124 5.80409L7.99984 2.27549L11.5284 5.80409Z" fill="#322826"/>
<path d="M12.4712 11.1374C12.7316 10.8771 12.7316 10.455 12.4712 10.1946C12.2109 9.93426 11.7888 9.93426 11.5284 10.1946L7.99984 13.7232L4.47124 10.1946C4.21089 9.93426 3.78878 9.93426 3.52843 10.1946C3.26808 10.455 3.26808 10.8771 3.52843 11.1374L7.52843 15.1374C7.78878 15.3978 8.21089 15.3978 8.47124 15.1374L12.4712 11.1374Z" fill="#322826"/>
</g>
</g>
</svg>
