<svg width="16" height="16" viewBox="0 0 16 16" fill="none" xmlns="http://www.w3.org/2000/svg">
<g id="Property 1=icon-like-hover">
<path id="Shape" fill-rule="evenodd" clip-rule="evenodd" d="M7.00903 3.57507C5.79609 2.36213 3.82952 2.36213 2.61658 3.57507C1.40363 4.78802 1.40363 6.75459 2.61658 7.96753L3.13638 8.48733C3.14488 8.49583 3.15312 8.50453 3.16111 8.51343L8.00024 13.3526L12.8392 8.51364C12.8472 8.5047 12.8555 8.49593 12.8641 8.48733L13.3839 7.96753C14.5969 6.75459 14.5969 4.78802 13.3839 3.57507C12.171 2.36213 10.2044 2.36213 8.99145 3.57507L8.47165 4.09488C8.2113 4.35523 7.78919 4.35523 7.52884 4.09488L7.00903 3.57507ZM13.8325 9.40452C13.8245 9.41346 13.8162 9.42223 13.8076 9.43083L8.47233 14.7661C8.34727 14.8912 8.17764 14.9614 8.00077 14.9614C8.0006 14.9614 8.00095 14.9614 8.00077 14.9614C8.0006 14.9614 7.99989 14.9614 7.99971 14.9614C7.82285 14.9614 7.65322 14.8912 7.52815 14.7661L2.19289 9.43083C2.18429 9.42223 2.17597 9.41346 2.16794 9.40452L1.67377 8.91034C-0.0598743 7.1767 -0.0598768 4.36591 1.67377 2.63226C3.40741 0.898621 6.2182 0.898621 7.95184 2.63226L8.00024 2.68066L8.04864 2.63226C9.78229 0.89862 12.5931 0.898621 14.3267 2.63226C16.0604 4.36591 16.0604 7.1767 14.3267 8.91034L13.8325 9.40452Z" fill="#85645D"/>
</g>
</svg>
