<svg width="16" height="16" viewBox="0 0 16 16" fill="none" xmlns="http://www.w3.org/2000/svg">
<g id="Property 1=icon-menu">
<g id="Shape">
<path d="M1.3335 4.00065C1.3335 3.63246 1.63197 3.33398 2.00016 3.33398H14.0002C14.3684 3.33398 14.6668 3.63246 14.6668 4.00065C14.6668 4.36884 14.3684 4.66732 14.0002 4.66732H2.00016C1.63197 4.66732 1.3335 4.36884 1.3335 4.00065Z" fill="#322826"/>
<path d="M1.3335 8.00065C1.3335 7.63246 1.63197 7.33398 2.00016 7.33398H14.0002C14.3684 7.33398 14.6668 7.63246 14.6668 8.00065C14.6668 8.36884 14.3684 8.66732 14.0002 8.66732H2.00016C1.63197 8.66732 1.3335 8.36884 1.3335 8.00065Z" fill="#322826"/>
<path d="M2.00016 11.334C1.63197 11.334 1.3335 11.6325 1.3335 12.0007C1.3335 12.3688 1.63197 12.6673 2.00016 12.6673H14.0002C14.3684 12.6673 14.6668 12.3688 14.6668 12.0007C14.6668 11.6325 14.3684 11.334 14.0002 11.334H2.00016Z" fill="#322826"/>
</g>
</g>
</svg>
