<svg width="16" height="16" viewBox="0 0 16 16" fill="none" xmlns="http://www.w3.org/2000/svg">
<g id="Property 1=icon-user-white">
<g id="Shape">
<path fill-rule="evenodd" clip-rule="evenodd" d="M8 1.33398C6.15905 1.33398 4.66667 2.82637 4.66667 4.66732C4.66667 6.50827 6.15905 8.00065 8 8.00065C9.84095 8.00065 11.3333 6.50827 11.3333 4.66732C11.3333 2.82637 9.84095 1.33398 8 1.33398ZM6 4.66732C6 3.56275 6.89543 2.66732 8 2.66732C9.10457 2.66732 10 3.56275 10 4.66732C10 5.77189 9.10457 6.66732 8 6.66732C6.89543 6.66732 6 5.77189 6 4.66732Z" fill="#FFFDFD"/>
<path d="M5.33333 9.33398C4.44928 9.33398 3.60143 9.68517 2.97631 10.3103C2.35119 10.9354 2 11.7833 2 12.6673V14.0007C2 14.3688 2.29848 14.6673 2.66667 14.6673C3.03486 14.6673 3.33333 14.3688 3.33333 14.0007V12.6673C3.33333 12.1369 3.54405 11.6282 3.91912 11.2531C4.29419 10.878 4.8029 10.6673 5.33333 10.6673H10.6667C11.1971 10.6673 11.7058 10.878 12.0809 11.2531C12.456 11.6282 12.6667 12.1369 12.6667 12.6673V14.0007C12.6667 14.3688 12.9651 14.6673 13.3333 14.6673C13.7015 14.6673 14 14.3688 14 14.0007V12.6673C14 11.7833 13.6488 10.9354 13.0237 10.3103C12.3986 9.68518 11.5507 9.33398 10.6667 9.33398H5.33333Z" fill="#FFFDFD"/>
</g>
</g>
</svg>
