<svg width="16" height="16" viewBox="0 0 16 16" fill="none" xmlns="http://www.w3.org/2000/svg">
<g id="Property 1=icon-message-white">
<path id="Shape" fill-rule="evenodd" clip-rule="evenodd" d="M8.33663 2.66732C5.57699 2.66732 3.33986 4.90445 3.33986 7.66409C3.33986 8.46283 3.52679 9.21601 3.85867 9.88402C3.93708 10.0418 3.94981 10.2243 3.89408 10.3915L3.04818 12.9291L5.61144 12.1026C5.77718 12.0491 5.95725 12.0627 6.11314 12.1403C6.78203 12.4733 7.53647 12.6609 8.33663 12.6609C11.0963 12.6609 13.3334 10.4237 13.3334 7.66409C13.3334 4.90445 11.0963 2.66732 8.33663 2.66732ZM2.00653 7.66409C2.00653 4.16807 4.84061 1.33398 8.33663 1.33398C11.8326 1.33398 14.6667 4.16807 14.6667 7.66409C14.6667 11.1601 11.8326 13.9942 8.33663 13.9942C7.42426 13.9942 6.55551 13.8008 5.77044 13.4522L2.2038 14.6023C1.96459 14.6794 1.70233 14.6155 1.52549 14.4369C1.34864 14.2583 1.28727 13.9954 1.36675 13.757L2.54498 10.2224C2.19866 9.43939 2.00653 8.5734 2.00653 7.66409Z" fill="#FFFDFD"/>
</g>
</svg>
