<svg width="16" height="16" viewBox="0 0 16 16" fill="none" xmlns="http://www.w3.org/2000/svg">
<g id="Property 1=icon-plus">
<path id="Shape" d="M8.6665 3.33268C8.6665 2.96449 8.36803 2.66602 7.99984 2.66602C7.63165 2.66602 7.33317 2.96449 7.33317 3.33268V7.33268H3.33317C2.96498 7.33268 2.6665 7.63116 2.6665 7.99935C2.6665 8.36754 2.96498 8.66602 3.33317 8.66602H7.33317V12.666C7.33317 13.0342 7.63165 13.3327 7.99984 13.3327C8.36803 13.3327 8.6665 13.0342 8.6665 12.666V8.66602H12.6665C13.0347 8.66602 13.3332 8.36754 13.3332 7.99935C13.3332 7.63116 13.0347 7.33268 12.6665 7.33268H8.6665V3.33268Z" fill="#322826"/>
</g>
</svg>
